<svg width="25" height="25" viewBox="0 0 25 25" fill="none" xmlns="http://www.w3.org/2000/svg">
<path d="M17.0801 2.86633H7.08008C4.31865 2.86633 2.08008 5.10491 2.08008 7.86633V17.8663C2.08008 20.6278 4.31865 22.8663 7.08008 22.8663H17.0801C19.8415 22.8663 22.0801 20.6278 22.0801 17.8663V7.86633C22.0801 5.10491 19.8415 2.86633 17.0801 2.86633Z" stroke="black" stroke-width="2" stroke-linecap="round" stroke-linejoin="round"/>
<path d="M16.08 12.2364C16.2034 13.0686 16.0613 13.9186 15.6738 14.6654C15.2863 15.4122 14.6732 16.0178 13.9217 16.3961C13.1701 16.7743 12.3185 16.906 11.4878 16.7723C10.6572 16.6387 9.88979 16.2465 9.29487 15.6516C8.69995 15.0566 8.30776 14.2893 8.1741 13.4586C8.04043 12.6279 8.17209 11.7763 8.55036 11.0248C8.92862 10.2732 9.53422 9.66013 10.281 9.27263C11.0278 8.88513 11.8778 8.74298 12.71 8.86639C13.559 8.99227 14.3449 9.38785 14.9517 9.9947C15.5586 10.6015 15.9541 11.3875 16.08 12.2364Z" stroke="black" stroke-width="2" stroke-linecap="round" stroke-linejoin="round"/>
<path d="M17.5801 7.36633H17.5901" stroke="black" stroke-width="2" stroke-linecap="round" stroke-linejoin="round"/>
</svg>
