<svg width="25" height="25" viewBox="0 0 25 25" fill="none" xmlns="http://www.w3.org/2000/svg">
<path d="M20.0801 10.8663C20.0801 16.8663 12.0801 22.8663 12.0801 22.8663C12.0801 22.8663 4.08008 16.8663 4.08008 10.8663C4.08008 8.7446 4.92293 6.70977 6.42322 5.20948C7.92351 3.70919 9.95835 2.86633 12.0801 2.86633C14.2018 2.86633 16.2366 3.70919 17.7369 5.20948C19.2372 6.70977 20.0801 8.7446 20.0801 10.8663Z" stroke="black" stroke-width="2" stroke-linecap="round" stroke-linejoin="round"/>
<path d="M12.0801 13.8663C13.7369 13.8663 15.0801 12.5232 15.0801 10.8663C15.0801 9.20948 13.7369 7.86633 12.0801 7.86633C10.4232 7.86633 9.08008 9.20948 9.08008 10.8663C9.08008 12.5232 10.4232 13.8663 12.0801 13.8663Z" stroke="black" stroke-width="2" stroke-linecap="round" stroke-linejoin="round"/>
</svg>
