<svg width="22" height="23" viewBox="0 0 22 23" fill="none" xmlns="http://www.w3.org/2000/svg">
<path d="M20.9682 16.7864V19.7864C20.9693 20.0649 20.9123 20.3406 20.8007 20.5958C20.6891 20.851 20.5255 21.08 20.3203 21.2683C20.1151 21.4566 19.8728 21.5999 19.6089 21.6891C19.3451 21.7784 19.0656 21.8115 18.7882 21.7864C15.711 21.4521 12.7552 20.4006 10.1582 18.7164C7.74202 17.1811 5.69353 15.1326 4.1582 12.7164C2.46817 10.1076 1.41644 7.13742 1.08819 4.04643C1.06321 3.7699 1.09607 3.49119 1.1847 3.22805C1.27332 2.96492 1.41577 2.72312 1.60296 2.51805C1.79016 2.31298 2.018 2.14914 2.27199 2.03695C2.52597 1.92476 2.80054 1.86669 3.0782 1.86643H6.0782C6.5635 1.86165 7.03399 2.03351 7.40196 2.34996C7.76993 2.66642 8.01027 3.10588 8.07819 3.58643C8.20482 4.5465 8.43964 5.48916 8.7782 6.39643C8.91274 6.75435 8.94186 7.14334 8.8621 7.51731C8.78235 7.89128 8.59706 8.23454 8.32819 8.50643L7.0582 9.77643C8.48175 12.28 10.5546 14.3529 13.0582 15.7764L14.3282 14.5064C14.6001 14.2376 14.9433 14.0523 15.3173 13.9725C15.6913 13.8928 16.0803 13.9219 16.4382 14.0564C17.3455 14.395 18.2881 14.6298 19.2482 14.7564C19.734 14.825 20.1776 15.0696 20.4947 15.4439C20.8119 15.8182 20.9804 16.296 20.9682 16.7864Z" stroke="black" stroke-width="2" stroke-linecap="round" stroke-linejoin="round"/>
</svg>
