<svg width="126" height="40" viewBox="0 0 126 40" fill="none" xmlns="http://www.w3.org/2000/svg">
<path d="M50.0172 13.9548V28.4633V13.9548ZM1.21993 13.9548L25.6186 1.86443L50.0172 13.9548L25.6186 26.0452L1.21993 13.9548Z" fill="#6D9875"/>
<path fill-rule="evenodd" clip-rule="evenodd" d="M25.073 0.783037C25.4164 0.612848 25.8207 0.612848 26.1641 0.783037L50.5628 12.8734C50.9761 13.0782 51.2371 13.4969 51.2371 13.9548V28.4633C51.2371 29.131 50.6909 29.6723 50.0172 29.6723C49.3434 29.6723 48.7973 29.131 48.7973 28.4633V15.9111L26.1641 27.1266C25.8207 27.2968 25.4164 27.2968 25.073 27.1266L0.674362 15.0362C0.261068 14.8314 0 14.4128 0 13.9548C0 13.4969 0.261068 13.0782 0.674362 12.8734L25.073 0.783037ZM47.2893 13.9548L25.6186 24.6935L3.94778 13.9548L25.6186 3.21618L47.2893 13.9548Z" fill="#6D9875"/>
<path fill-rule="evenodd" clip-rule="evenodd" d="M10.9794 17.5819C11.6531 17.5819 12.1993 18.1233 12.1993 18.791V30.1342L25.6186 36.7839L39.0378 30.1342V18.791C39.0378 18.1233 39.584 17.5819 40.2577 17.5819C40.9315 17.5819 41.4777 18.1233 41.4777 18.791V30.8814C41.4777 31.3393 41.2166 31.758 40.8033 31.9628L26.1641 39.217C25.8207 39.3872 25.4164 39.3872 25.073 39.217L10.4338 31.9628C10.0205 31.758 9.75945 31.3393 9.75945 30.8814V18.791C9.75945 18.1233 10.3056 17.5819 10.9794 17.5819Z" fill="#6D9875"/>
<path d="M120.792 18.2224C119.963 18.2224 119.225 18.0426 118.576 17.6831C117.934 17.3171 117.43 16.8227 117.064 16.1999C116.698 15.5707 116.515 14.858 116.515 14.0618C116.515 13.2656 116.698 12.5497 117.064 11.9141C117.43 11.2784 117.934 10.7776 118.576 10.4116C119.225 10.0392 119.963 9.85303 120.792 9.85303C121.62 9.85303 122.352 10.0392 122.987 10.4116C123.623 10.7776 124.121 11.2784 124.48 11.9141C124.846 12.5497 125.029 13.2656 125.029 14.0618C125.029 14.858 124.846 15.5707 124.48 16.1999C124.121 16.8227 123.623 17.3171 122.987 17.6831C122.352 18.0426 121.62 18.2224 120.792 18.2224ZM120.792 16.4888C121.254 16.4888 121.655 16.3829 121.995 16.171C122.336 15.9591 122.599 15.6702 122.785 15.3042C122.971 14.9382 123.064 14.5209 123.064 14.0522C123.064 13.5835 122.971 13.1661 122.785 12.8001C122.599 12.4277 122.336 12.1324 121.995 11.9141C121.655 11.6958 121.254 11.5866 120.792 11.5866C120.329 11.5866 119.925 11.6958 119.578 11.9141C119.238 12.1324 118.971 12.4277 118.779 12.8001C118.592 13.1661 118.499 13.5835 118.499 14.0522C118.499 14.5209 118.592 14.9382 118.779 15.3042C118.971 15.6702 119.238 15.9591 119.578 16.171C119.925 16.3829 120.329 16.4888 120.792 16.4888Z" fill="#1E1E1E"/>
<path d="M111.323 16.1517L113.828 10.0842H115.879L110.505 21.9978H108.424L110.235 17.9913L106.961 10.0842H109.041L111.323 16.1517Z" fill="#1E1E1E"/>
<path d="M103.373 17.9912V10.0841H105.424V17.9912H103.373ZM104.423 7.71488C104.076 7.71488 103.777 7.58968 103.527 7.33927C103.283 7.08887 103.161 6.7903 103.161 6.44359C103.161 6.09687 103.283 5.79831 103.527 5.5479C103.777 5.29107 104.076 5.16266 104.423 5.16266C104.654 5.16266 104.866 5.22366 105.058 5.34565C105.257 5.46122 105.415 5.61532 105.53 5.80794C105.652 5.99414 105.713 6.20602 105.713 6.44359C105.713 6.7903 105.588 7.08887 105.338 7.33927C105.087 7.58968 104.782 7.71488 104.423 7.71488Z" fill="#1E1E1E"/>
<path d="M91.8626 5.27832H101.445L94.5497 16.1807H101.031V17.9913H90.9669L97.8724 7.08896H91.8626V5.27832Z" fill="#1E1E1E"/>
<path d="M81.7341 9.85303C82.3248 9.85303 82.8321 9.97823 83.2558 10.2286C83.686 10.479 84.0167 10.8643 84.2478 11.3844C84.4854 11.9044 84.6042 12.569 84.6042 13.378V17.9913H82.572V13.744C82.572 12.9799 82.4629 12.3988 82.2446 12.0007C82.0327 11.6027 81.6314 11.4036 81.0407 11.4036C80.7197 11.4036 80.4179 11.4903 80.1354 11.6637C79.8529 11.837 79.6249 12.0971 79.4516 12.4438C79.2847 12.7841 79.2012 13.2175 79.2012 13.744V17.9913H77.2942V13.744C77.2942 12.9799 77.1626 12.3988 76.8994 12.0007C76.6425 11.6027 76.2573 11.4036 75.7436 11.4036C75.4162 11.4036 75.1144 11.4871 74.8383 11.654C74.5622 11.821 74.3407 12.0778 74.1738 12.4245C74.0068 12.7712 73.9234 13.2111 73.9234 13.744V17.9913H71.8816V10.0842H73.9234V11.2688C73.994 11.0697 74.1513 10.8611 74.3953 10.6428C74.6457 10.4245 74.9571 10.2383 75.3295 10.0842C75.7019 9.93008 76.1096 9.85303 76.5526 9.85303C77.0342 9.85303 77.4323 9.94292 77.7469 10.1227C78.0679 10.2961 78.3215 10.5144 78.5077 10.7776C78.7004 11.0409 78.8416 11.3041 78.9315 11.5674C79.0214 11.3041 79.1948 11.0409 79.4516 10.7776C79.7148 10.5144 80.0423 10.2961 80.434 10.1227C80.8256 9.94292 81.259 9.85303 81.7341 9.85303Z" fill="#1E1E1E"/>
<path d="M69.5782 17.9913H67.5076V4.73895H69.5782V17.9913Z" fill="#1E1E1E"/>
<path d="M62.9209 5.27832H64.9434V17.9913H62.9209V5.27832Z" fill="#1E1E1E"/>
<path d="M121.745 34.1194L123.888 28.9985H125.234L120.949 38.5672H119.587L121.026 35.3493L118.411 28.9985H119.781L121.745 34.1194Z" fill="#1E1E1E" fill-opacity="0.5"/>
<path d="M114.074 28.813C114.544 28.813 114.946 28.9161 115.281 29.1224C115.616 29.3235 115.872 29.6329 116.047 30.0507C116.227 30.4684 116.318 31.0021 116.318 31.6519V35.3494H114.987V31.9226C114.987 31.2368 114.892 30.7211 114.701 30.3755C114.51 30.03 114.162 29.8573 113.657 29.8573C113.389 29.8573 113.131 29.932 112.883 30.0816C112.641 30.226 112.44 30.4503 112.28 30.7546C112.125 31.0588 112.048 31.4482 112.048 31.9226V35.3494H110.795V31.9226C110.795 31.2368 110.676 30.7211 110.439 30.3755C110.202 30.03 109.869 29.8573 109.441 29.8573C109.168 29.8573 108.91 29.9295 108.667 30.0739C108.43 30.2131 108.237 30.4348 108.087 30.7391C107.938 31.0434 107.863 31.4379 107.863 31.9226V35.3494H106.525V28.9986H107.863V29.9733C107.92 29.8134 108.041 29.6433 108.226 29.4628C108.417 29.2823 108.66 29.1301 108.954 29.0064C109.253 28.8774 109.585 28.813 109.951 28.813C110.333 28.813 110.653 28.8903 110.911 29.0451C111.168 29.1998 111.372 29.3906 111.522 29.6175C111.671 29.8392 111.774 30.0532 111.831 30.2595C111.903 30.0378 112.043 29.816 112.249 29.5943C112.455 29.3674 112.716 29.1817 113.03 29.0373C113.345 28.8878 113.693 28.813 114.074 28.813Z" fill="#1E1E1E" fill-opacity="0.5"/>
<path d="M98.9971 32.4486C99.0023 32.8302 99.0848 33.1783 99.2447 33.4929C99.4045 33.8075 99.6417 34.0576 99.9563 34.2433C100.276 34.4289 100.668 34.5217 101.132 34.5217C101.524 34.5217 101.857 34.465 102.13 34.3515C102.408 34.2329 102.635 34.0937 102.811 33.9338C102.986 33.7688 103.112 33.6218 103.19 33.4929L103.847 34.3051C103.677 34.5527 103.468 34.7693 103.221 34.9549C102.978 35.1406 102.682 35.2824 102.331 35.3804C101.98 35.4835 101.552 35.5351 101.047 35.5351C100.366 35.5351 99.7758 35.3907 99.2756 35.1019C98.7805 34.8079 98.3989 34.4031 98.1308 33.8874C97.8626 33.3666 97.7285 32.7709 97.7285 32.1005C97.7285 31.4817 97.8549 30.9248 98.1076 30.4297C98.3602 29.9295 98.7264 29.535 99.206 29.2462C99.6907 28.9574 100.273 28.813 100.954 28.813C101.578 28.813 102.12 28.9445 102.579 29.2075C103.043 29.4653 103.401 29.8315 103.654 30.3059C103.912 30.7804 104.041 31.3476 104.041 32.0077C104.041 32.049 104.038 32.1237 104.033 32.232C104.028 32.3352 104.023 32.4074 104.017 32.4486H98.9971ZM102.757 31.4353C102.751 31.2239 102.69 30.9918 102.571 30.7391C102.457 30.4864 102.272 30.2698 102.014 30.0893C101.756 29.9088 101.408 29.8186 100.97 29.8186C100.516 29.8186 100.15 29.9063 99.8712 30.0816C99.5979 30.2569 99.3968 30.4709 99.2679 30.7236C99.1389 30.9712 99.0642 31.2084 99.0435 31.4353H102.757Z" fill="#1E1E1E" fill-opacity="0.5"/>
<path d="M91.9129 35.535C91.3302 35.535 90.8067 35.3958 90.3426 35.1173C89.8837 34.8388 89.5201 34.4495 89.2519 33.9493C88.9889 33.4439 88.8574 32.8534 88.8574 32.1779C88.8574 31.5023 88.9889 30.9144 89.2519 30.4142C89.5201 29.9088 89.8837 29.5169 90.3426 29.2384C90.8067 28.9548 91.3302 28.813 91.9129 28.813C92.3822 28.813 92.7947 28.8955 93.1506 29.0605C93.5064 29.2203 93.79 29.4086 94.0015 29.6252C94.2129 29.8418 94.3341 30.03 94.365 30.1899V24.7054H95.7187V35.3494H94.3882V34.1117C94.3315 34.287 94.1897 34.4856 93.9628 34.7073C93.741 34.9291 93.4548 35.1225 93.1042 35.2875C92.7535 35.4525 92.3564 35.535 91.9129 35.535ZM92.2223 34.4211C92.6143 34.4211 92.9727 34.3283 93.2976 34.1427C93.6224 33.957 93.8803 33.6966 94.0711 33.3614C94.2671 33.021 94.365 32.6265 94.365 32.1779C94.365 31.7292 94.2671 31.3373 94.0711 31.0021C93.8803 30.6617 93.6224 30.3987 93.2976 30.2131C92.9727 30.0223 92.6143 29.9269 92.2223 29.9269C91.8613 29.9269 91.5261 30.0197 91.2167 30.2053C90.9073 30.391 90.6572 30.6514 90.4664 30.9866C90.2807 31.3218 90.1879 31.7189 90.1879 32.1779C90.1879 32.6368 90.2807 33.0339 90.4664 33.3691C90.6572 33.7043 90.9073 33.9647 91.2167 34.1504C91.5261 34.3309 91.8613 34.4211 92.2223 34.4211Z" fill="#1E1E1E" fill-opacity="0.5"/>
<path d="M85.0712 35.3494V34.1117C85.0299 34.2407 84.9087 34.4186 84.7076 34.6455C84.5116 34.8724 84.2409 35.0787 83.8954 35.2643C83.555 35.4448 83.1528 35.5351 82.6886 35.5351C82.1008 35.5351 81.567 35.3958 81.0874 35.1174C80.613 34.8389 80.2339 34.4495 79.9503 33.9493C79.6718 33.4439 79.5326 32.8535 79.5326 32.1779C79.5326 31.5023 79.6718 30.9144 79.9503 30.4142C80.2339 29.9088 80.613 29.5169 81.0874 29.2384C81.567 28.9548 82.1008 28.813 82.6886 28.813C83.1476 28.813 83.5447 28.8955 83.8799 29.0605C84.2203 29.2255 84.491 29.4164 84.6921 29.6329C84.8984 29.8495 85.0196 30.0352 85.0557 30.1899V28.9986H86.3862V35.3494H85.0712ZM80.8631 32.1779C80.8631 32.6369 80.9636 33.0339 81.1648 33.3691C81.3659 33.7044 81.6263 33.9648 81.946 34.1504C82.2709 34.3309 82.6164 34.4212 82.9826 34.4212C83.3745 34.4212 83.7252 34.3283 84.0346 34.1427C84.344 33.957 84.589 33.6966 84.7695 33.3614C84.95 33.0211 85.0402 32.6265 85.0402 32.1779C85.0402 31.7292 84.95 31.3373 84.7695 31.0021C84.589 30.6618 84.344 30.3987 84.0346 30.2131C83.7252 30.0223 83.3745 29.9269 82.9826 29.9269C82.6164 29.9269 82.2709 30.0197 81.946 30.2054C81.6263 30.391 81.3659 30.6514 81.1648 30.9866C80.9636 31.3218 80.8631 31.7189 80.8631 32.1779Z" fill="#1E1E1E" fill-opacity="0.5"/>
<path d="M75.61 34.4212C76.0122 34.4212 76.3371 34.3567 76.5846 34.2278C76.8322 34.0989 76.9869 34.006 77.0488 33.9493L77.7063 34.9162C77.6547 34.9626 77.5309 35.0374 77.335 35.1406C77.1442 35.2385 76.8966 35.3288 76.5924 35.4113C76.2933 35.4938 75.9529 35.5351 75.5713 35.5351C74.9886 35.5351 74.4471 35.4061 73.9469 35.1483C73.4466 34.8853 73.0418 34.5037 72.7324 34.0035C72.4281 33.5032 72.276 32.8921 72.276 32.1702C72.276 31.443 72.4281 30.8319 72.7324 30.3369C73.0418 29.8366 73.4466 29.4576 73.9469 29.1998C74.4471 28.9419 74.9886 28.813 75.5713 28.813C75.9477 28.813 76.2829 28.8594 76.5769 28.9522C76.8708 29.0399 77.1132 29.1379 77.304 29.2462C77.4948 29.3545 77.6212 29.437 77.6831 29.4937L77.0178 30.4606C76.9766 30.4194 76.8966 30.3575 76.778 30.275C76.6646 30.1873 76.5099 30.1074 76.3139 30.0352C76.1179 29.963 75.8833 29.9269 75.61 29.9269C75.2799 29.9269 74.9576 30.0171 74.643 30.1976C74.3336 30.373 74.0784 30.6282 73.8772 30.9634C73.6761 31.2986 73.5756 31.7009 73.5756 32.1702C73.5756 32.6394 73.6761 33.0443 73.8772 33.3846C74.0784 33.7198 74.3336 33.9777 74.643 34.1582C74.9576 34.3335 75.2799 34.4212 75.61 34.4212Z" fill="#1E1E1E" fill-opacity="0.5"/>
<path d="M65.4841 25.1386H66.861L70.6359 35.3494H69.2203L68.3385 32.8895H64.0066L63.1093 35.3494H61.6937L65.4841 25.1386ZM64.4321 31.6982H67.9207L66.188 26.763H66.1648L64.4321 31.6982Z" fill="#1E1E1E" fill-opacity="0.5"/>
</svg>
