<svg width="1280" height="720" viewBox="0 0 1280 720" fill="none" xmlns="http://www.w3.org/2000/svg">
<g clip-path="url(#clip0_3_58)">
<rect width="1280" height="720" fill="white"/>
<path d="M621.907 271.066C647.564 289.521 677.887 411.748 631.368 495.022C579.116 585.525 531.375 592.057 473.898 558.873C393.198 547.534 418.942 464.923 494.589 352.325C546.841 261.822 596.251 252.612 621.907 271.066Z" fill="#FF6925" fill-opacity="0.05"/>
<path d="M30.4812 160.971C41.8426 169.143 55.2706 223.269 34.6704 260.145C11.5318 300.223 -9.60938 303.115 -35.0617 288.42C-70.7978 283.399 -59.3979 246.817 -25.8991 196.955C-2.76046 156.878 19.1198 152.799 30.4812 160.971Z" fill="#FEF177" fill-opacity="0.28"/>
<path d="M1352.32 514.933C1373.62 530.25 1398.78 631.693 1360.17 700.807C1316.81 775.921 1277.19 781.342 1229.48 753.801C1162.5 744.39 1183.87 675.826 1246.65 582.375C1290.02 507.261 1331.03 499.617 1352.32 514.933Z" fill="#6D9875" fill-opacity="0.11"/>
</g>
<defs>
<clipPath id="clip0_3_58">
<rect width="1280" height="720" fill="white"/>
</clipPath>
</defs>
</svg>
