<svg width="52" height="40" viewBox="0 0 52 40" fill="none" xmlns="http://www.w3.org/2000/svg">
<path d="M50.0172 13.9548V28.4633V13.9548ZM1.21993 13.9548L25.6186 1.86443L50.0172 13.9548L25.6186 26.0452L1.21993 13.9548Z" fill="#6D9875"/>
<path fill-rule="evenodd" clip-rule="evenodd" d="M25.073 0.783037C25.4164 0.612848 25.8207 0.612848 26.1641 0.783037L50.5628 12.8734C50.9761 13.0782 51.2371 13.4969 51.2371 13.9548V28.4633C51.2371 29.131 50.6909 29.6723 50.0172 29.6723C49.3434 29.6723 48.7973 29.131 48.7973 28.4633V15.9111L26.1641 27.1266C25.8207 27.2968 25.4164 27.2968 25.073 27.1266L0.674362 15.0362C0.261068 14.8314 0 14.4128 0 13.9548C0 13.4969 0.261068 13.0782 0.674362 12.8734L25.073 0.783037ZM47.2893 13.9548L25.6186 24.6935L3.94778 13.9548L25.6186 3.21618L47.2893 13.9548Z" fill="#6D9875"/>
<path fill-rule="evenodd" clip-rule="evenodd" d="M10.9794 17.5819C11.6531 17.5819 12.1993 18.1233 12.1993 18.791V30.1342L25.6186 36.7839L39.0378 30.1342V18.791C39.0378 18.1233 39.584 17.5819 40.2577 17.5819C40.9315 17.5819 41.4777 18.1233 41.4777 18.791V30.8814C41.4777 31.3393 41.2166 31.758 40.8033 31.9628L26.1641 39.217C25.8207 39.3872 25.4164 39.3872 25.073 39.217L10.4338 31.9628C10.0205 31.758 9.75945 31.3393 9.75945 30.8814V18.791C9.75945 18.1233 10.3056 17.5819 10.9794 17.5819Z" fill="#6D9875"/>
</svg>
